<?xml version="1.0" standalone="no"?>
<!DOCTYPE svg PUBLIC "-//W3C//DTD SVG 20010904//EN"
 "http://www.w3.org/TR/2001/REC-SVG-20010904/DTD/svg10.dtd">
<svg version="1.0" xmlns="http://www.w3.org/2000/svg"
 width="300.000000pt" height="300.000000pt" viewBox="0 0 300.000000 300.000000"
 preserveAspectRatio="xMidYMid meet">
<metadata>
Created by potrace 1.11, written by Peter Selinger 2001-2013
</metadata>
<g transform="translate(0.000000,300.000000) scale(0.100000,-0.100000)"
fill="#000000" stroke="none">
<path d="M1325 2839 c-435 -59 -809 -322 -1024 -719 -22 -41 -58 -129 -80
-195 -94 -282 -94 -568 0 -850 71 -213 162 -359 328 -526 169 -168 310 -256
530 -329 276 -92 566 -92 842 0 220 73 361 161 530 329 160 161 254 308 323
509 56 160 70 253 70 442 0 294 -66 513 -232 765 -59 90 -257 288 -347 347
-162 107 -336 180 -507 213 -100 20 -336 27 -433 14z m420 -448 c119 -31 199
-74 271 -146 91 -91 154 -235 154 -350 0 -35 -1 -35 -43 -35 -24 0 -104 -3
-178 -6 l-134 -7 -17 59 c-24 85 -65 136 -135 170 -54 27 -66 29 -178 29 -140
-1 -208 -21 -266 -81 -30 -31 -34 -41 -34 -89 0 -48 4 -58 34 -89 49 -50 124
-80 358 -140 291 -76 374 -108 472 -186 109 -86 172 -226 172 -385 1 -113 -12
-170 -59 -259 -111 -215 -362 -322 -711 -303 -150 9 -237 28 -336 75 -174 84
-286 238 -331 457 -9 42 -14 78 -12 80 7 7 339 35 348 30 4 -2 10 -22 14 -42
9 -56 49 -135 92 -183 64 -71 168 -110 293 -110 187 0 326 90 339 219 6 65 -2
93 -38 135 -41 47 -101 70 -339 131 -222 57 -341 98 -412 143 -152 97 -230
236 -230 411 1 259 182 443 486 491 98 15 328 5 420 -19z"/>
</g>
</svg>
